/vscmnt/brussel_pixiu_data/_data_brussel/112/vsc11236/PredSimResults/SUBJ06mtu3D/worker7.mot
version=1
nRows=11
nColumns=50
inDegrees=yes
endheader
                time	         pelvis_tilt	         pelvis_list	     pelvis_rotation	           pelvis_tx	           pelvis_ty	           pelvis_tz	       hip_flexion_r	     hip_adduction_r	      hip_rotation_r	        knee_angle_r	       ankle_angle_r	         mtp_angle_r	       hip_flexion_l	     hip_adduction_l	      hip_rotation_l	        knee_angle_l	       ankle_angle_l	         mtp_angle_l	    lumbar_extension	      lumbar_bending	     lumbar_rotation	 ercspn_r/activation	 intobl_r/activation	 extobl_r/activation	    abd_r/activation	    add_r/activation	hamstrings_r/activation	bifemsh_r/activation	glut_max_r/activation	iliopsoas_r/activation	rect_fem_r/activation	  vasti_r/activation	gastroc_r/activation	 soleus_r/activation	tib_ant_r/activation	 ercspn_l/activation	 intobl_l/activation	 extobl_l/activation	    abd_l/activation	    add_l/activation	hamstrings_l/activation	bifemsh_l/activation	glut_max_l/activation	iliopsoas_l/activation	rect_fem_l/activation	  vasti_l/activation	gastroc_l/activation	 soleus_l/activation	tib_ant_l/activation	
          1.25590082	         -5.81778593	         -1.36488521	          5.12729839	          1.40660892	          0.93165488	         -0.01096749	         31.04530580	         -0.15377390	         -2.29665365	         -5.74866592	          5.27472317	          0.21719340	        -10.94900186	         -0.56503414	          1.26116782	         -9.75974681	          9.47678424	         30.95445065	         -5.91277089	         -0.45772723	          0.68507130	          0.15315622	          0.17179865	          0.01000000	          0.01000001	          0.14693356	          0.14780984	          0.21888539	          0.01556731	          0.14307294	          0.01000002	          0.01000000	          0.03446533	          0.01000000	          0.35703289	          0.09064582	          0.00999999	          0.01000000	          0.06019918	          0.01000005	          0.01289213	          0.14078032	          0.05524364	          0.42789071	          0.01000146	          0.01000001	          0.37011046	          0.33701764	          0.02186065	
          1.26845983	         -5.87725442	         -1.28169974	          5.13171237	          1.42372722	          0.92958313	         -0.01018089	         31.10488819	         -0.01264818	         -1.98994811	         -7.41751028	          4.83552995	          0.20424501	        -11.38070596	         -0.57483851	          0.78764685	        -10.76457783	          8.67261382	         32.84759487	         -5.59158326	         -0.22075123	          0.29292657	          0.13285274	          0.14206259	          0.01000000	          0.00999999	          0.18225150	          0.13311142	          0.18099922	          0.07246889	          0.11830890	          0.01000007	          0.01000000	          0.02849984	          0.01768568	          0.35773592	          0.12215007	          0.01000000	          0.01000000	          0.04977950	          0.05297402	          0.01504309	          0.11641311	          0.04574252	          0.42787836	          0.01000926	          0.01283234	          0.34541928	          0.31983445	          0.01807686	
          1.28101884	         -5.92198469	         -1.21334482	          5.09820955	          1.44117161	          0.92776536	         -0.00930574	         30.97861648	          0.11628539	         -1.66154816	         -8.98581859	          4.45570824	          0.19299817	        -11.64569554	         -0.60504722	          0.29534391	        -12.11006333	          7.71643992	         34.80975423	         -5.25209074	          0.04124231	         -0.09761723	          0.13650579	          0.11747344	          0.01000000	          0.06409911	          0.16528006	          0.12123467	          0.14967066	          0.11201905	          0.09783119	          0.01000000	          0.00999999	          0.02356690	          0.01462452	          0.44073142	          0.11480819	          0.00999999	          0.01000000	          0.04116332	          0.04380493	          0.01244196	          0.09626354	          0.03782509	          0.43485125	          0.01000012	          0.01854629	          0.31636157	          0.29616863	          0.01494799	
          1.29357784	         -5.95404879	         -1.14237456	          5.02460135	          1.45869356	          0.92638599	         -0.00832740	         30.73321335	          0.24791087	         -1.40197476	        -10.32439419	          3.85471410	          0.17390118	        -11.66601213	         -0.63916113	         -0.21801950	        -13.89007347	          6.55049197	         36.82531943	         -4.92326757	          0.30560012	         -0.47619593	          0.14364134	          0.09714034	          0.01000000	          0.11594525	          0.22134861	          0.10614911	          0.12376465	          0.14784673	          0.08089790	          0.01000000	          0.01000000	          0.01948778	          0.01209321	          0.48094487	          0.13971449	          0.00999999	          0.01000000	          0.03403849	          0.05076312	          0.04352658	          0.07960160	          0.03127807	          0.43233021	          0.01000027	          0.01767509	          0.26779885	          0.26975337	          0.01236069	
          1.30613685	         -5.97239858	         -1.07599278	          4.91743788	          1.47610614	          0.92555460	         -0.00726232	         30.45376545	          0.39154001	         -1.19728086	        -11.63551173	          3.37240491	          0.14576034	        -11.37260052	         -0.68962361	         -0.75450335	        -16.19918186	          5.16505241	         38.79551112	         -4.62282013	          0.58030440	         -0.83961526	          0.14832115	          0.08032663	          0.01000000	          0.15446905	          0.25618995	          0.09840477	          0.10234263	          0.17000242	          0.06689554	          0.01000000	          0.03971887	          0.01611470	          0.01000006	          0.51002229	          0.15937202	          0.01000000	          0.01000000	          0.02814688	          0.12925528	          0.03737050	          0.06582362	          0.02586425	          0.41000331	          0.01000007	          0.01461577	          0.22144640	          0.22559290	          0.01022122	
          1.31869586	         -5.97766512	         -1.01933973	          4.78070723	          1.49327186	          0.92534856	         -0.00613857	         30.13067169	          0.54972477	         -1.02734774	        -12.90220639	          3.10956706	          0.11684110	        -10.71959903	         -0.76750273	         -1.32688481	        -19.09198632	          3.58295801	         40.47318629	         -4.36033643	          0.87142200	         -1.18383864	          0.13899830	          0.06642315	          0.01000000	          0.18114314	          0.25037643	          0.09141085	          0.08462848	          0.16878116	          0.05531680	          0.01000000	          0.10113528	          0.01332546	          0.01000000	          0.52449737	          0.17839818	          0.01000000	          0.01000000	          0.02327502	          0.19766744	          0.06508634	          0.05443044	          0.02138749	          0.36958572	          0.01000001	          0.01208597	          0.18311694	          0.18654575	          0.00999999	
          1.33125487	         -5.97239934	         -0.97529927	          4.61741622	          1.51007173	          0.92584290	         -0.00498318	         29.70430171	          0.72607800	         -0.86361746	        -13.99966068	          3.07130419	          0.09130473	         -9.69483216	         -0.88623004	         -1.94839429	        -22.56262374	          1.89741337	         41.39266942	         -4.14364923	          1.18132165	         -1.50602201	          0.13047906	          0.05492618	          0.01000000	          0.19201792	          0.21820817	          0.08527921	          0.06998041	          0.15634968	          0.04574219	          0.01000000	          0.14715063	          0.01101901	          0.01000001	          0.51469619	          0.18447762	          0.01000000	          0.01000000	          0.01924642	          0.22356075	          0.05382570	          0.04500930	          0.01768560	          0.31685106	          0.01000001	          0.00999999	          0.15142181	          0.15425714	          0.00999999	
          1.34381388	         -5.95926894	         -0.93863136	          4.43007037	          1.52644409	          0.92704785	         -0.00382406	         29.13755052	          0.91444620	         -0.68891693	        -14.85534033	          3.27262940	          0.07269141	         -8.32381764	         -1.05429347	         -2.61887144	        -26.54364845	          0.17442927	         41.17610755	         -3.97594243	          1.50335644	         -1.80336329	          0.12293650	          0.04541919	          0.01000000	          0.19421576	          0.18043923	          0.08062274	          0.05786773	          0.14159510	          0.03782482	          0.01000000	          0.17586790	          0.01000000	          0.01000000	          0.48798305	          0.19161509	          0.01000000	          0.01000000	          0.01591512	          0.21520444	          0.04450936	          0.04823344	          0.01462445	          0.26200833	          0.01000001	          0.00999999	          0.12521269	          0.12755726	          0.00999999	
          1.35637288	         -5.94049764	         -0.90049367	          4.21895094	          1.54239072	          0.92890829	         -0.00268291	         28.41495351	          1.10233053	         -0.50252569	        -15.43183512	          3.67713229	          0.06590570	         -6.67427312	         -1.27212189	         -3.32332711	        -30.83957457	         -1.76261430	         39.95925747	         -3.85364944	          1.82615371	         -2.07157221	          0.11540730	          0.03755773	          0.01000000	          0.19343769	          0.14920758	          0.07734640	          0.04785160	          0.13020474	          0.03127784	          0.01000000	          0.19321771	          0.01000000	          0.01000000	          0.44623102	          0.19680415	          0.01000000	          0.01000001	          0.01316042	          0.21851170	          0.03680548	          0.08048612	          0.01209315	          0.21665814	          0.01000000	          0.00999999	          0.10354003	          0.10547878	          0.01000000	
          1.36893189	         -5.91791917	         -0.84810895	          3.98453906	          1.55792765	          0.93132521	         -0.00157645	         27.53507299	          1.27267402	         -0.30337927	        -15.71438287	          4.22004650	          0.08247964	         -4.82434869	         -1.52964716	         -4.04755214	        -35.26531166	         -3.85270016	         37.61959566	         -3.77265917	          2.13298185	         -2.30799326	          0.09543186	          0.03105698	          0.01000000	          0.19299989	          0.12338172	          0.07434210	          0.03956912	          0.11404773	          0.02586406	          0.01000000	          0.19012199	          0.01000000	          0.01000000	          0.40082902	          0.20373053	          0.01000000	          0.01000001	          0.01088253	          0.20607486	          0.03043504	          0.08155470	          0.00999999	          0.17915748	          0.01000001	          0.00999999	          0.08561861	          0.08722179	          0.06637009	
          1.38149090	         -5.89228853	         -0.77053854	          3.73023969	          1.57306050	          0.93412881	         -0.00051075	         26.52984534	          1.41191062	         -0.08033087	        -15.74223123	          4.79682844	          0.12687322	         -2.87057822	         -1.80912766	         -4.76876648	        -39.67972931	         -5.65621187	         33.81913478	         -3.73201888	          2.40645066	         -2.51549733	          0.07891387	          0.02568143	          0.01000000	          0.19388692	          0.10202597	          0.07097142	          0.03272024	          0.10102038	          0.02138733	          0.01000000	          0.17418813	          0.01000000	          0.01000000	          0.35975433	          0.21306927	          0.01000001	          0.01000007	          0.00999999	          0.17040604	          0.02516731	          0.10780335	          0.00999999	          0.14814769	          0.01000000	          0.00999999	          0.07079916	          0.07212485	          0.19380741	
